<mxfile host="app.diagrams.net" modified="2023-06-08T16:54:09.458Z" agent="Mozilla/5.0 (Windows NT 10.0; Win64; x64) AppleWebKit/537.36 (KHTML, like Gecko) Chrome/114.0.0.0 Safari/537.36" etag="3IS3s2_FR6TYC0BH7s6s" version="21.3.7" type="github">
  <diagram id="wZHUh0PHe3u16E74AbIc" name="Page-1">
    <mxGraphModel dx="810" dy="476" grid="1" gridSize="10" guides="1" tooltips="1" connect="1" arrows="1" fold="1" page="1" pageScale="1" pageWidth="850" pageHeight="1100" math="0" shadow="0">
      <root>
        <mxCell id="0" />
        <mxCell id="1" parent="0" />
        <mxCell id="f0-JGGhkmQzOCE-lL7dx-3" value="ATM Cash Withdrawal" style="shape=rect;html=1;verticalAlign=top;fontStyle=1;whiteSpace=wrap;align=center;" vertex="1" parent="1">
          <mxGeometry x="160" y="270" width="480" height="380" as="geometry" />
        </mxCell>
        <mxCell id="f0-JGGhkmQzOCE-lL7dx-4" value="User" style="shape=umlActor;html=1;verticalLabelPosition=bottom;verticalAlign=top;align=center;" vertex="1" parent="1">
          <mxGeometry x="70" y="320" width="30" height="60" as="geometry" />
        </mxCell>
        <mxCell id="f0-JGGhkmQzOCE-lL7dx-6" value="Banking System" style="shape=umlActor;html=1;verticalLabelPosition=bottom;verticalAlign=top;align=center;" vertex="1" parent="1">
          <mxGeometry x="700" y="530" width="30" height="60" as="geometry" />
        </mxCell>
        <mxCell id="f0-JGGhkmQzOCE-lL7dx-9" value="Enter card and pin" style="shape=ellipse;html=1;strokeWidth=3;fontStyle=1;whiteSpace=wrap;align=center;perimeter=ellipsePerimeter;" vertex="1" parent="1">
          <mxGeometry x="230" y="320" width="120" height="60" as="geometry" />
        </mxCell>
        <mxCell id="f0-JGGhkmQzOCE-lL7dx-12" value="Invalid Pin" style="ellipse;whiteSpace=wrap;html=1;" vertex="1" parent="1">
          <mxGeometry x="500" y="320" width="70" height="40" as="geometry" />
        </mxCell>
        <mxCell id="f0-JGGhkmQzOCE-lL7dx-13" value="&amp;lt;&amp;lt;extend&amp;gt;&amp;gt;" style="edgeStyle=none;html=1;startArrow=open;endArrow=none;startSize=12;verticalAlign=bottom;dashed=1;labelBackgroundColor=none;rounded=0;exitX=1;exitY=0.5;exitDx=0;exitDy=0;" edge="1" parent="1" source="f0-JGGhkmQzOCE-lL7dx-9">
          <mxGeometry width="160" relative="1" as="geometry">
            <mxPoint x="340" y="339.5" as="sourcePoint" />
            <mxPoint x="500" y="340" as="targetPoint" />
          </mxGeometry>
        </mxCell>
        <mxCell id="f0-JGGhkmQzOCE-lL7dx-14" value="" style="edgeStyle=none;html=1;endArrow=none;verticalAlign=bottom;rounded=0;" edge="1" parent="1">
          <mxGeometry width="160" relative="1" as="geometry">
            <mxPoint x="120" y="350" as="sourcePoint" />
            <mxPoint x="230" y="350" as="targetPoint" />
          </mxGeometry>
        </mxCell>
        <mxCell id="f0-JGGhkmQzOCE-lL7dx-15" value="Maintenance" style="shape=ellipse;html=1;strokeWidth=3;fontStyle=1;whiteSpace=wrap;align=center;perimeter=ellipsePerimeter;" vertex="1" parent="1">
          <mxGeometry x="190" y="490" width="120" height="60" as="geometry" />
        </mxCell>
        <mxCell id="f0-JGGhkmQzOCE-lL7dx-17" value="Cash Withdrawal" style="shape=ellipse;html=1;strokeWidth=3;fontStyle=1;whiteSpace=wrap;align=center;perimeter=ellipsePerimeter;" vertex="1" parent="1">
          <mxGeometry x="365" y="380" width="120" height="60" as="geometry" />
        </mxCell>
        <mxCell id="f0-JGGhkmQzOCE-lL7dx-18" value="Deposit" style="shape=ellipse;html=1;strokeWidth=3;fontStyle=1;whiteSpace=wrap;align=center;perimeter=ellipsePerimeter;" vertex="1" parent="1">
          <mxGeometry x="400" y="520" width="120" height="60" as="geometry" />
        </mxCell>
        <mxCell id="f0-JGGhkmQzOCE-lL7dx-20" value="" style="edgeStyle=none;html=1;endArrow=none;verticalAlign=bottom;rounded=0;" edge="1" parent="1" target="f0-JGGhkmQzOCE-lL7dx-17">
          <mxGeometry width="160" relative="1" as="geometry">
            <mxPoint x="110" y="370" as="sourcePoint" />
            <mxPoint x="310" y="410" as="targetPoint" />
          </mxGeometry>
        </mxCell>
        <mxCell id="f0-JGGhkmQzOCE-lL7dx-21" value="" style="edgeStyle=none;html=1;endArrow=none;verticalAlign=bottom;rounded=0;entryX=0;entryY=0.5;entryDx=0;entryDy=0;" edge="1" parent="1" target="f0-JGGhkmQzOCE-lL7dx-18">
          <mxGeometry width="160" relative="1" as="geometry">
            <mxPoint x="110" y="390" as="sourcePoint" />
            <mxPoint x="400" y="540" as="targetPoint" />
            <Array as="points" />
          </mxGeometry>
        </mxCell>
        <mxCell id="f0-JGGhkmQzOCE-lL7dx-22" value="" style="edgeStyle=none;html=1;endArrow=none;verticalAlign=bottom;rounded=0;entryX=0.042;entryY=0.333;entryDx=0;entryDy=0;entryPerimeter=0;" edge="1" parent="1" target="f0-JGGhkmQzOCE-lL7dx-15">
          <mxGeometry width="160" relative="1" as="geometry">
            <mxPoint x="100" y="410" as="sourcePoint" />
            <mxPoint x="240" y="590" as="targetPoint" />
            <Array as="points" />
          </mxGeometry>
        </mxCell>
        <mxCell id="f0-JGGhkmQzOCE-lL7dx-23" value="" style="edgeStyle=none;html=1;endArrow=none;verticalAlign=bottom;rounded=0;" edge="1" parent="1">
          <mxGeometry width="160" relative="1" as="geometry">
            <mxPoint x="350" y="360" as="sourcePoint" />
            <mxPoint x="710" y="520" as="targetPoint" />
            <Array as="points">
              <mxPoint x="710" y="380" />
            </Array>
          </mxGeometry>
        </mxCell>
        <mxCell id="f0-JGGhkmQzOCE-lL7dx-24" value="" style="edgeStyle=none;html=1;endArrow=none;verticalAlign=bottom;rounded=0;exitX=1;exitY=0.492;exitDx=0;exitDy=0;exitPerimeter=0;" edge="1" parent="1" source="f0-JGGhkmQzOCE-lL7dx-17">
          <mxGeometry width="160" relative="1" as="geometry">
            <mxPoint x="540" y="419.5" as="sourcePoint" />
            <mxPoint x="690" y="530" as="targetPoint" />
            <Array as="points" />
          </mxGeometry>
        </mxCell>
        <mxCell id="f0-JGGhkmQzOCE-lL7dx-25" value="" style="edgeStyle=none;html=1;endArrow=none;verticalAlign=bottom;rounded=0;exitX=0.925;exitY=0.783;exitDx=0;exitDy=0;exitPerimeter=0;" edge="1" parent="1" source="f0-JGGhkmQzOCE-lL7dx-18">
          <mxGeometry width="160" relative="1" as="geometry">
            <mxPoint x="530" y="530" as="sourcePoint" />
            <mxPoint x="690" y="550" as="targetPoint" />
          </mxGeometry>
        </mxCell>
        <mxCell id="f0-JGGhkmQzOCE-lL7dx-26" value="" style="edgeStyle=none;html=1;endArrow=none;verticalAlign=bottom;rounded=0;exitX=0.942;exitY=0.717;exitDx=0;exitDy=0;exitPerimeter=0;" edge="1" parent="1" source="f0-JGGhkmQzOCE-lL7dx-15">
          <mxGeometry width="160" relative="1" as="geometry">
            <mxPoint x="370" y="590" as="sourcePoint" />
            <mxPoint x="690" y="570" as="targetPoint" />
            <Array as="points">
              <mxPoint x="450" y="600" />
            </Array>
          </mxGeometry>
        </mxCell>
        <mxCell id="f0-JGGhkmQzOCE-lL7dx-28" value="Remove card" style="shape=ellipse;html=1;strokeWidth=3;fontStyle=1;whiteSpace=wrap;align=center;perimeter=ellipsePerimeter;" vertex="1" parent="1">
          <mxGeometry x="180" y="580" width="120" height="60" as="geometry" />
        </mxCell>
        <mxCell id="f0-JGGhkmQzOCE-lL7dx-29" value="" style="edgeStyle=none;html=1;endArrow=none;verticalAlign=bottom;rounded=0;entryX=0.033;entryY=0.333;entryDx=0;entryDy=0;entryPerimeter=0;" edge="1" parent="1" target="f0-JGGhkmQzOCE-lL7dx-28">
          <mxGeometry width="160" relative="1" as="geometry">
            <mxPoint x="90" y="410" as="sourcePoint" />
            <mxPoint x="215" y="585" as="targetPoint" />
            <Array as="points" />
          </mxGeometry>
        </mxCell>
        <mxCell id="f0-JGGhkmQzOCE-lL7dx-30" value="" style="edgeStyle=none;html=1;endArrow=none;verticalAlign=bottom;rounded=0;" edge="1" parent="1" source="f0-JGGhkmQzOCE-lL7dx-28">
          <mxGeometry width="160" relative="1" as="geometry">
            <mxPoint x="320" y="605" as="sourcePoint" />
            <mxPoint x="685" y="580" as="targetPoint" />
            <Array as="points">
              <mxPoint x="500" y="620" />
            </Array>
          </mxGeometry>
        </mxCell>
        <mxCell id="f0-JGGhkmQzOCE-lL7dx-33" value="Check Balance" style="shape=ellipse;html=1;strokeWidth=3;fontStyle=1;whiteSpace=wrap;align=center;perimeter=ellipsePerimeter;" vertex="1" parent="1">
          <mxGeometry x="320" y="450" width="120" height="60" as="geometry" />
        </mxCell>
        <mxCell id="f0-JGGhkmQzOCE-lL7dx-36" value="" style="edgeStyle=none;html=1;endArrow=none;verticalAlign=bottom;rounded=0;entryX=0.008;entryY=0.35;entryDx=0;entryDy=0;entryPerimeter=0;" edge="1" parent="1" target="f0-JGGhkmQzOCE-lL7dx-33">
          <mxGeometry width="160" relative="1" as="geometry">
            <mxPoint x="120" y="380" as="sourcePoint" />
            <mxPoint x="377" y="413" as="targetPoint" />
          </mxGeometry>
        </mxCell>
        <mxCell id="f0-JGGhkmQzOCE-lL7dx-37" value="" style="edgeStyle=none;html=1;endArrow=none;verticalAlign=bottom;rounded=0;exitX=1;exitY=1;exitDx=0;exitDy=0;" edge="1" parent="1" source="f0-JGGhkmQzOCE-lL7dx-33">
          <mxGeometry width="160" relative="1" as="geometry">
            <mxPoint x="440" y="487" as="sourcePoint" />
            <mxPoint x="690" y="540" as="targetPoint" />
          </mxGeometry>
        </mxCell>
        <mxCell id="f0-JGGhkmQzOCE-lL7dx-39" value="&amp;lt;&amp;lt;include&amp;gt;&amp;gt;" style="edgeStyle=none;html=1;endArrow=open;verticalAlign=bottom;dashed=1;labelBackgroundColor=none;rounded=0;entryX=1;entryY=0.5;entryDx=0;entryDy=0;exitX=0.967;exitY=0.75;exitDx=0;exitDy=0;exitPerimeter=0;" edge="1" parent="1" source="f0-JGGhkmQzOCE-lL7dx-17" target="f0-JGGhkmQzOCE-lL7dx-33">
          <mxGeometry x="-0.8094" y="-22" width="160" relative="1" as="geometry">
            <mxPoint x="480" y="435" as="sourcePoint" />
            <mxPoint x="470" y="485" as="targetPoint" />
            <Array as="points">
              <mxPoint x="520" y="435" />
              <mxPoint x="510" y="480" />
            </Array>
            <mxPoint as="offset" />
          </mxGeometry>
        </mxCell>
        <mxCell id="f0-JGGhkmQzOCE-lL7dx-40" value="Insufficient balance" style="ellipse;whiteSpace=wrap;html=1;" vertex="1" parent="1">
          <mxGeometry x="520" y="380" width="110" height="50" as="geometry" />
        </mxCell>
        <mxCell id="f0-JGGhkmQzOCE-lL7dx-41" value="&amp;lt;&amp;lt;extend&amp;gt;&amp;gt;" style="edgeStyle=none;html=1;startArrow=open;endArrow=none;startSize=12;verticalAlign=bottom;dashed=1;labelBackgroundColor=none;rounded=0;exitX=0.975;exitY=0.667;exitDx=0;exitDy=0;entryX=0.5;entryY=1;entryDx=0;entryDy=0;exitPerimeter=0;" edge="1" parent="1" source="f0-JGGhkmQzOCE-lL7dx-33" target="f0-JGGhkmQzOCE-lL7dx-40">
          <mxGeometry x="0.6102" y="-13" width="160" relative="1" as="geometry">
            <mxPoint x="360" y="360" as="sourcePoint" />
            <mxPoint x="510" y="350" as="targetPoint" />
            <Array as="points">
              <mxPoint x="560" y="500" />
            </Array>
            <mxPoint as="offset" />
          </mxGeometry>
        </mxCell>
      </root>
    </mxGraphModel>
  </diagram>
</mxfile>
